<?xml version="1.0" encoding="utf-8"?>
<!-- Generator: Adobe Illustrator 21.0.0, SVG Export Plug-In . SVG Version: 6.00 Build 0)  -->
<svg version="1.1" id="Layer_1" xmlns="http://www.w3.org/2000/svg" xmlns:xlink="http://www.w3.org/1999/xlink" x="0px" y="0px"
	 viewBox="0 0 283.5 283.5" style="enable-background:new 0 0 283.5 283.5;" xml:space="preserve">
<style type="text/css">
	.st0{fill:#98252B;}
	.st1{fill:#6A1014;}
	.st2{fill:#001A71;}
</style>
<g>
	<path class="st0" d="M85,114.9L85,114.9L85,114.9L85,114.9L85,114.9c-7,0-13.4,2.9-18,7.6c0.1,0.1,0.2,0.2,0.3,0.3l0,0l0.2,0.2
		l8.4,8.4c2.3-2.3,5.5-3.8,9-3.8l0,0l0,0c7,0,12.6,5.7,12.6,12.6c0,7-5.7,12.6-12.6,12.6l0,0l0,0c-3.7,0-7-1.6-9.3-4.1l0,0l-7.7-7.7
		l0,0l-1.3-1.3l-6-6c-0.5,2-0.8,4.1-0.8,6.3c0,6.9,2.7,13.4,7.7,18.1c0,0.1,0.1,0.1,0.1,0.2l7.2,7.3l10,8.8l10-8.8l7.2-7.3
		c0,0,0.1-0.1,0.1-0.2c5-4.8,7.7-11.2,7.7-18.1C110.2,126.2,98.9,114.9,85,114.9z"/>
	<path class="st1" d="M75.7,148.8l-7.7-7.7l0,0l-1.3-1.3l-6-6c-0.5,2-0.8,4.1-0.8,6.3c0,0.6,0,1.1,0.1,1.7l16.3,7.6
		C76.1,149.2,75.9,149,75.7,148.8L75.7,148.8z"/>
	<g>
		<path class="st2" d="M84.9,140.3l25.3-25.2H92.3L76,131.4l-8.7-8.6l0,0c-4.6-4.7-11-7.6-18-7.6c-4.6,0-8.9,1.3-12.7,3.4v-10.9
			H24.1v32.6v0.8l0,0l0,0c0.4,13.5,11.5,24.3,25.1,24.3c7,0,13.4-2.9,18-7.6c-3.2-3.2-5.4-7-6.5-11.2l-2,2l0,0l-1,1
			c-2.3,2.1-5.3,3.2-8.4,3.2c-7,0-12.7-5.7-12.7-12.7l0,0c0-7,5.7-12.7,12.7-12.7c3.1,0,6.1,1.2,8.4,3.2l17.9,18l0,0
			c2.3,2.5,5.6,4.1,9.3,4.1l0,0l0,0c3.5,0,6.6-1.4,8.9-3.7L84.9,140.3z"/>
		<path class="st2" d="M95.3,165.4h14.9l-7.5-7.5C102.6,158.1,95.3,165.4,95.3,165.4z"/>
	</g>
</g>
<g>
	<path class="st2" d="M154.5,147c-5.4,0-9.9,3.9-10,9.8l0,0V170l4.2,5.8v-10.5c1.6,1.1,3.7,1.7,5.8,1.7c5.5,0,10.1-3.9,10.1-10
		C164.5,151,159.9,147,154.5,147z M154.5,162.9c-3.2,0-5.8-2.3-5.8-5.7V157c0-3.6,2.7-5.9,5.8-5.9c3.2,0,5.8,2.3,5.8,6
		C160.3,160.6,157.7,162.9,154.5,162.9z"/>
	<path class="st2" d="M189.4,146.9c-5.4,0-10,4-10,10.1s4.6,10,10,10c4.5,0,8.3-2.6,9.6-6.8h-4.7c-1,1.6-2.9,2.6-5,2.6
		c-2.8,0-5.2-1.8-5.7-4.6H199l0,0h0.4c0-0.4,0.1-0.8,0.1-1.2C199.5,150.9,194.8,146.9,189.4,146.9z M189.4,151
		c2.5,0,4.7,1.4,5.5,3.8H184C184.7,152.5,186.9,151,189.4,151z"/>
	<path class="st2" d="M211.7,155.6l-3-0.7c-1-0.3-2.1-0.7-2.3-1.5c-0.2-0.6-0.2-1.2,0.2-1.7c0.5-0.7,1.6-1.1,2.7-1.1
		c1.3,0,2.6,0.6,2.8,2.1h4c-0.2-4.1-3.6-5.7-7-5.7c-3.5,0-6.7,2.2-6.9,5.1c-0.3,3.1,1.2,5.1,5.3,6.3l2.6,0.6c1.4,0.3,2.7,1,2.7,2.3
		c0,1.4-1.5,2.3-3.4,2.3c-2.3,0-3.6-1.1-3.8-2.8h-3.9c0.1,4.1,3.7,6.3,7.4,6.3c4.4,0,7.7-2.1,7.7-5.8
		C216.7,159.3,215.8,156.5,211.7,155.6z"/>
	<path class="st2" d="M229,155.6l-3-0.7c-1-0.3-2.1-0.7-2.3-1.5c-0.2-0.6-0.2-1.2,0.2-1.7c0.5-0.7,1.6-1.1,2.7-1.1
		c1.3,0,2.6,0.6,2.8,2.1h4c-0.2-4.1-3.6-5.7-7-5.7c-3.5,0-6.7,2.2-6.9,5.1c-0.3,3.1,1.2,5.1,5.3,6.3l2.6,0.6c1.4,0.3,2.7,1,2.7,2.3
		c0,1.4-1.5,2.3-3.4,2.3c-2.3,0-3.6-1.1-3.8-2.8H219c0.1,4.1,3.7,6.3,7.4,6.3c4.4,0,7.7-2.1,7.7-5.8
		C234,159.3,233.1,156.5,229,155.6z"/>
	<path class="st2" d="M167.4,157.2L167.4,157.2v9.8h4.2v-9.6c0-3.6,2.6-5.9,5.8-5.9l0,0v-4.1l0,0C172,147.3,167.5,151.2,167.4,157.2
		z"/>
	<polygon class="st2" points="141.2,147.3 135.4,147.3 131.9,152.3 128.4,147.3 122.7,147.3 129.1,156.3 121.4,167 127.1,167 
		131.9,160.2 136.7,167 142.5,167 134.7,156.3 	"/>
</g>
<g>
	<path class="st2" d="M129.6,120.1c-2.2,0-4.2,0.8-5.6,2.3v-4.6l-2.1-2.9v12.2l0,0c0,0.2,0,0.5,0,0.7c0,4.7,3.5,7.6,7.7,7.6
		s7.7-3,7.7-7.6C137.3,123.1,133.8,120.1,129.6,120.1z M129.6,133.4c-3.1,0-5.6-2.1-5.6-5.6c0-3.4,2.6-5.7,5.6-5.7
		c3.1,0,5.6,2.2,5.6,5.7C135.2,131.2,132.7,133.4,129.6,133.4z"/>
	<path class="st2" d="M164.5,119.8c-4.2,0-7.7,3.1-7.7,7.7l0,0l0,0v7.6h2.1c0,0,0-7.5,0-7.6c0-3.4,2.6-5.7,5.6-5.7
		c3.1,0,5.6,2.2,5.6,5.7c0,0.1,0,7.6,0,7.6h2.1v-7.6l0,0l0,0C172.2,122.9,168.7,119.8,164.5,119.8z"/>
	<path class="st2" d="M234.2,119.8c-4.2,0-7.7,3.1-7.7,7.7c0,4.7,3.5,7.6,7.7,7.6c2.2,0,4.2-0.8,5.6-2.3v2.3h2.1c0,0,0-7.5,0-7.6
		C241.9,122.9,238.4,119.8,234.2,119.8z M234.2,133.1c-3.1,0-5.6-2.1-5.6-5.6c0-3.4,2.6-5.7,5.6-5.7c3.1,0,5.6,2.2,5.6,5.7
		S237.2,133.1,234.2,133.1z"/>
	<path class="st2" d="M147,119.8c-4.2,0-7.7,3.1-7.7,7.7c0,4.7,3.5,7.6,7.7,7.6c2.2,0,4.2-0.8,5.6-2.3v2.3h2.1c0,0,0-7.5,0-7.6
		C154.7,122.9,151.2,119.8,147,119.8z M147,133.1c-3.1,0-5.6-2.1-5.6-5.6c0-3.4,2.6-5.7,5.6-5.7c3.1,0,5.6,2.2,5.6,5.7
		S150.1,133.1,147,133.1z"/>
	<path class="st2" d="M259.3,127.6c0-4.7-3.5-7.7-7.7-7.7s-7.7,3.1-7.7,7.7l0,0l0,0v7.6h2.1c0,0,0-7.5,0-7.6c0-3.4,2.6-5.7,5.6-5.7
		c3.1,0,5.6,2.2,5.6,5.7c0,0.1,0,7.6,0,7.6h2.1L259.3,127.6L259.3,127.6L259.3,127.6z"/>
	<path class="st2" d="M216.7,119.8c-4.2,0-7.7,3.1-7.7,7.7l0,0l0,0v7.6h2.1c0,0,0-7.5,0-7.6c0-3.4,2.6-5.7,5.6-5.7
		c3.1,0,5.6,2.2,5.6,5.7c0,0.1,0,7.6,0,7.6h2.1v-7.6l0,0l0,0C224.5,122.9,221,119.8,216.7,119.8z"/>
	<path class="st2" d="M204.9,127.5c0,3.4-2.6,5.7-5.6,5.7c-3.1,0-5.6-2.2-5.6-5.7c0-0.1,0-7.6,0-7.6h-2.1v7.6l0,0l0,0
		c0,4.7,3.5,7.7,7.7,7.7s7.7-3.1,7.7-7.7l0,0l0,0v-7.6h-2.1C204.9,119.8,204.9,127.3,204.9,127.5z"/>
	<path class="st2" d="M181.9,119.8c-4.2,0-7.7,3.1-7.7,7.7c0,4.7,3.5,7.6,7.7,7.6c2.2,0,4.2-0.8,5.6-2.3c0,1.4,0,2.6,0,2.7
		c0,3.4-2.6,5.7-5.6,5.7c-2.7,0-5-1.8-5.5-4.6h-2.1c0.5,4.1,3.8,6.7,7.6,6.7c4.2,0,7.7-3.1,7.7-7.7l0,0l0,0V128l0,0
		c0-0.1,0-0.3,0-0.4C189.6,122.9,186.1,119.8,181.9,119.8z M181.9,133.1c-3.1,0-5.6-2.1-5.6-5.6c0-3.4,2.6-5.7,5.6-5.7
		c3.1,0,5.6,2.2,5.6,5.7S184.9,133.1,181.9,133.1z"/>
</g>
</svg>
